# File produced by Open Asset Import Library (http://www.assimp.sf.net)
# (assimp v3.1.187496374)

mtllib boomarang.obj.mtl

# 112 vertex positions
v  15.408 -61.306 8.074
v  22.354 -58.145 8.074
v  10.012 -23.803 8.074
v  8.988 -63.302 8.074
v  4.281 -24.688 8.074
v  29.684 -53.955 8.074
v  16.396 -21.336 8.074
v  37.262 -48.881 8.074
v  23.291 -17.56 8.074
v  44.933 -43.056 8.074
v  30.558 -12.749 8.074
v  59.996 -29.71 8.074
v  45.642 -1.116 8.074
v  73.719 -15.03 8.074
v  60.514 11.371 8.074
v  79.72 -7.53 8.074
v  74.045 22.519 8.074
v  89.274 7.088 8.074
v  84.949 -0.112 8.074
v  92.538 13.937 8.074
v  79.958 26.905 8.074
v  94.602 20.284 8.074
v  85.115 30.138 8.074
v  95.321 26.005 8.074
v  89.367 31.933 8.074
v  92.579 32.031 8.074
v  93.753 31.349 8.074
v  94.612 30.143 8.074
v  3.246 -64.001 8.074
v  -2.552 -63.271 8.074
v  -9.132 -61.171 8.074
v  -1.533 -23.772 8.074
v  -16.337 -57.855 8.074
v  -8.144 -21.206 8.074
v  -23.998 -53.469 8.074
v  -31.969 -48.162 8.074
v  -15.396 -17.275 8.074
v  -40.075 -42.073 8.074
v  -23.129 -12.263 8.074
v  -56.09 -28.159 8.074
v  -39.372 -0.133 8.074
v  -70.765 -12.904 8.074
v  -55.572 12.923 8.074
v  -77.2 -5.145 8.074
v  -70.439 24.64 8.074
v  -82.822 2.511 8.074
v  -76.962 29.29 8.074
v  -90.995 16.906 8.074
v  -87.473 9.908 8.074
v  -93.225 23.357 8.074
v  -82.662 32.756 8.074
v  -94.001 29.109 8.074
v  -87.379 34.752 8.074
v  -93.209 33.211 8.074
v  -92.252 34.38 8.074
v  -90.949 35.001 8.074
v  -1.533 -23.772 0
v  4.281 -24.688 0
v  -9.132 -61.171 0
v  -16.337 -57.855 0
v  -8.144 -21.206 0
v  -2.552 -63.271 0
v  3.246 -64.001 0
v  10.012 -23.803 0
v  15.408 -61.306 0
v  8.988 -63.302 0
v  16.396 -21.336 0
v  29.684 -53.955 0
v  22.354 -58.145 0
v  37.262 -48.881 0
v  23.291 -17.56 0
v  44.933 -43.056 0
v  30.558 -12.749 0
v  59.996 -29.71 0
v  45.642 -1.116 0
v  73.719 -15.03 0
v  60.514 11.371 0
v  79.72 -7.53 0
v  74.045 22.519 0
v  89.274 7.088 0
v  84.949 -0.112 0
v  79.958 26.905 0
v  92.538 13.937 0
v  85.115 30.138 0
v  94.602 20.284 0
v  89.367 31.933 0
v  95.321 26.005 0
v  93.753 31.349 0
v  94.612 30.143 0
v  92.579 32.031 0
v  -23.998 -53.469 0
v  -31.969 -48.162 0
v  -15.396 -17.275 0
v  -40.075 -42.073 0
v  -23.129 -12.263 0
v  -56.09 -28.159 0
v  -39.372 -0.133 0
v  -70.765 -12.904 0
v  -55.572 12.923 0
v  -77.2 -5.145 0
v  -70.439 24.64 0
v  -82.822 2.511 0
v  -76.962 29.29 0
v  -90.995 16.906 0
v  -87.473 9.908 0
v  -82.662 32.756 0
v  -93.225 23.357 0
v  -87.379 34.752 0
v  -94.001 29.109 0
v  -90.949 35.001 0
v  -93.209 33.211 0
v  -92.252 34.38 0

# 0 UV coordinates

# 58 vertex normals
vn 0 0 1
vn 0 0 -1
vn 0.85723 -0.514933 0
vn 0.817343 -0.576151 0
vn 0.985637 0.168878 0
vn -0.6006 -0.79955 0
vn 0.66316 -0.748478 0
vn -0.89325 -0.449561 0
vn -0.655854 -0.754888 0
vn 0.556369 -0.830935 0
vn -0.552023 0.833829 0
vn -0.720674 -0.693274 0
vn 0.414208 -0.910182 0
vn -0.480331 0.877087 0
vn -0.769723 -0.638377 0
vn -0.945124 -0.326713 0
vn 0.814508 0.580152 0
vn 0.296886 -0.954913 0
vn 0.627504 0.778613 0
vn 0.155631 0.987815 0
vn 0.502313 0.864686 0
vn 0.120842 -0.992672 0
vn 0.61899 0.785399 0
vn 0.361841 0.93224 0
vn 0.95098 -0.309252 0
vn 0.58047 0.814281 0
vn -0.0304964 0.999535 0
vn 0.598349 0.801235 0
vn -0.981866 0.189575 0
vn 0.902729 -0.43021 0
vn 0.476549 0.879148 0
vn 0.0695789 0.997576 0
vn -0.360457 0.932776 0
vn -0.991022 -0.133698 0
vn -0.388919 0.921272 0
vn -0.152614 0.988286 0
vn 0.543886 0.839159 0
vn -0.430229 0.90272 0
vn 0.519557 0.854436 0
vn -0.610697 0.791864 0
vn -0.77378 0.633454 0
vn -0.531165 0.847268 0
vn -0.806023 -0.591884 0
vn -0.496846 -0.867839 0
vn -0.643027 0.765844 0
vn -0.124919 -0.992167 0
vn -0.595754 0.803167 0
vn 0.389697 0.920943 0
vn 0.604757 -0.79641 0
vn -0.30404 -0.952659 0
vn 0.780818 -0.624759 0
vn 0.496266 -0.86817 0
vn -0.418083 -0.908409 0
vn -0.846561 -0.532291 0
vn -0.554194 -0.832388 0
vn 0.730517 -0.682894 0
vn -0.635871 0.771795 0
vn 0.992195 -0.124696 0

# Mesh '<STL_BINARY>' with 220 faces
g <STL_BINARY>
usemtl DefaultMaterial
f  1//1 2//1 3//1
f  4//1 1//1 5//1
f  3//1 5//1 1//1
f  2//1 6//1 3//1
f  7//1 3//1 6//1
f  6//1 8//1 7//1
f  9//1 7//1 8//1
f  10//1 9//1 8//1
f  9//1 10//1 11//1
f  12//1 11//1 10//1
f  13//1 11//1 12//1
f  12//1 14//1 13//1
f  15//1 13//1 14//1
f  14//1 16//1 15//1
f  17//1 15//1 18//1
f  19//1 18//1 15//1
f  16//1 19//1 15//1
f  18//1 20//1 17//1
f  21//1 17//1 20//1
f  20//1 22//1 21//1
f  23//1 21//1 22//1
f  22//1 24//1 23//1
f  25//1 23//1 24//1
f  26//1 25//1 24//1
f  27//1 26//1 24//1
f  27//1 24//1 28//1
f  29//1 4//1 5//1
f  30//1 29//1 5//1
f  31//1 30//1 5//1
f  5//1 32//1 31//1
f  31//1 32//1 33//1
f  32//1 34//1 33//1
f  35//1 33//1 34//1
f  36//1 35//1 34//1
f  37//1 36//1 34//1
f  36//1 37//1 38//1
f  39//1 38//1 37//1
f  38//1 39//1 40//1
f  41//1 40//1 39//1
f  42//1 40//1 41//1
f  41//1 43//1 42//1
f  44//1 42//1 43//1
f  43//1 45//1 46//1
f  44//1 43//1 46//1
f  45//1 47//1 48//1
f  48//1 49//1 45//1
f  49//1 46//1 45//1
f  50//1 48//1 47//1
f  47//1 51//1 50//1
f  52//1 50//1 51//1
f  51//1 53//1 52//1
f  54//1 52//1 53//1
f  55//1 54//1 53//1
f  56//1 55//1 53//1
f  57//2 58//2 59//2
f  57//2 60//2 61//2
f  60//2 57//2 59//2
f  62//2 59//2 58//2
f  58//2 63//2 62//2
f  64//2 65//2 58//2
f  65//2 66//2 58//2
f  63//2 58//2 66//2
f  64//2 67//2 68//2
f  68//2 69//2 64//2
f  69//2 65//2 64//2
f  70//2 68//2 67//2
f  67//2 71//2 70//2
f  72//2 70//2 71//2
f  71//2 73//2 72//2
f  74//2 72//2 73//2
f  75//2 74//2 73//2
f  74//2 75//2 76//2
f  77//2 76//2 75//2
f  76//2 77//2 78//2
f  79//2 80//2 77//2
f  78//2 77//2 81//2
f  80//2 81//2 77//2
f  79//2 82//2 83//2
f  79//2 83//2 80//2
f  82//2 84//2 85//2
f  85//2 83//2 82//2
f  84//2 86//2 87//2
f  87//2 85//2 84//2
f  88//2 89//2 86//2
f  89//2 87//2 86//2
f  90//2 88//2 86//2
f  91//2 61//2 60//2
f  92//2 61//2 91//2
f  61//2 92//2 93//2
f  94//2 93//2 92//2
f  95//2 93//2 94//2
f  94//2 96//2 95//2
f  97//2 95//2 96//2
f  98//2 97//2 96//2
f  97//2 98//2 99//2
f  100//2 99//2 98//2
f  101//2 99//2 102//2
f  100//2 102//2 99//2
f  103//2 101//2 104//2
f  105//2 104//2 101//2
f  102//2 105//2 101//2
f  106//2 103//2 107//2
f  104//2 107//2 103//2
f  108//2 106//2 109//2
f  107//2 109//2 106//2
f  110//2 108//2 109//2
f  111//2 112//2 109//2
f  112//2 110//2 109//2
f  19//3 81//3 80//3
f  18//3 19//3 80//3
f  19//4 16//4 78//4
f  19//4 78//4 81//4
f  87//5 89//5 28//5
f  87//5 28//5 24//5
f  36//6 38//6 94//6
f  36//6 94//6 92//6
f  12//7 10//7 72//7
f  12//7 72//7 74//7
f  48//8 104//8 105//8
f  48//8 105//8 49//8
f  38//9 40//9 96//9
f  38//9 96//9 94//9
f  8//10 6//10 68//10
f  8//10 68//10 70//10
f  73//11 71//11 9//11
f  73//11 9//11 11//11
f  42//12 98//12 96//12
f  42//12 96//12 40//12
f  2//13 1//13 65//13
f  2//13 65//13 69//13
f  9//14 71//14 67//14
f  9//14 67//14 7//14
f  100//15 98//15 42//15
f  100//15 42//15 44//15
f  107//16 104//16 48//16
f  107//16 48//16 50//16
f  89//17 88//17 27//17
f  89//17 27//17 28//17
f  1//18 4//18 66//18
f  1//18 66//18 65//18
f  97//19 99//19 43//19
f  41//19 97//19 43//19
f  32//20 5//20 57//20
f  58//20 57//20 5//20
f  88//21 90//21 26//21
f  88//21 26//21 27//21
f  4//22 29//22 63//22
f  4//22 63//22 66//22
f  99//23 101//23 45//23
f  99//23 45//23 43//23
f  32//24 57//24 61//24
f  32//24 61//24 34//24
f  22//25 20//25 83//25
f  22//25 83//25 85//25
f  101//26 103//26 47//26
f  101//26 47//26 45//26
f  90//27 86//27 25//27
f  90//27 25//27 26//27
f  95//28 97//28 41//28
f  95//28 41//28 39//28
f  54//29 111//29 109//29
f  54//29 109//29 52//29
f  20//30 18//30 80//30
f  20//30 80//30 83//30
f  34//31 61//31 93//31
f  34//31 93//31 37//31
f  108//32 110//32 56//32
f  108//32 56//32 53//32
f  7//33 67//33 64//33
f  7//33 64//33 3//33
f  52//34 109//34 107//34
f  52//34 107//34 50//34
f  86//35 84//35 23//35
f  86//35 23//35 25//35
f  3//36 64//36 58//36
f  3//36 58//36 5//36
f  37//37 93//37 95//37
f  37//37 95//37 39//37
f  110//38 112//38 55//38
f  110//38 55//38 56//38
f  47//39 103//39 106//39
f  47//39 106//39 51//39
f  75//40 73//40 11//40
f  75//40 11//40 13//40
f  112//41 111//41 54//41
f  112//41 54//41 55//41
f  84//42 82//42 21//42
f  84//42 21//42 23//42
f  100//43 44//43 102//43
f  46//43 102//43 44//43
f  60//44 33//44 35//44
f  60//44 35//44 91//44
f  77//45 75//45 13//45
f  15//45 77//45 13//45
f  62//46 63//46 30//46
f  29//46 30//46 63//46
f  82//47 79//47 17//47
f  82//47 17//47 21//47
f  106//48 108//48 53//48
f  106//48 53//48 51//48
f  72//49 10//49 8//49
f  72//49 8//49 70//49
f  62//50 30//50 31//50
f  62//50 31//50 59//50
f  78//51 16//51 14//51
f  78//51 14//51 76//51
f  68//52 6//52 2//52
f  68//52 2//52 69//52
f  31//53 33//53 60//53
f  31//53 60//53 59//53
f  49//54 105//54 102//54
f  49//54 102//54 46//54
f  35//55 36//55 92//55
f  35//55 92//55 91//55
f  14//56 12//56 74//56
f  14//56 74//56 76//56
f  17//57 79//57 77//57
f  17//57 77//57 15//57
f  22//58 85//58 87//58
f  22//58 87//58 24//58

