# Blender v2.77 (sub 0) OBJ File: 'untitled.blend'
# www.blender.org
mtllib ShieldCurve.mtl
o BezierCircle
v -1.877954 2.408995 -0.017117
v -1.860775 2.664185 -0.014048
v -1.810734 2.908960 -0.011105
v -1.730075 3.141075 -0.008314
v -1.621044 3.358286 -0.005702
v -1.485884 3.558348 -0.003296
v -1.326841 3.739017 -0.001124
v -1.146159 3.898049 0.000789
v -0.946082 4.033199 0.002414
v -0.728856 4.142222 0.003725
v -0.496724 4.222875 0.004695
v -0.251931 4.272913 0.005296
v 0.003278 4.290091 0.005503
v 0.258487 4.272913 0.005296
v 0.503280 4.222875 0.004695
v 0.735412 4.142222 0.003725
v 0.952638 4.033199 0.002414
v 1.152715 3.898049 0.000789
v 1.333397 3.739018 -0.001124
v 1.492440 3.558349 -0.003296
v 1.627600 3.358286 -0.005702
v 1.736631 3.141076 -0.008314
v 1.817289 2.908960 -0.011105
v 1.867330 2.664185 -0.014048
v 1.884510 2.408995 -0.017117
v 1.867331 2.153804 -0.020186
v 1.817290 1.909029 -0.023129
v 1.736631 1.676914 -0.025920
v 1.627600 1.459703 -0.028532
v 1.492440 1.259641 -0.030938
v 1.333397 1.078972 -0.033110
v 1.152715 0.919940 -0.035022
v 0.952638 0.784791 -0.036648
v 0.735412 0.675767 -0.037959
v 0.503280 0.595114 -0.038928
v 0.258487 0.545077 -0.039530
v 0.003278 0.527899 -0.039737
v -0.251931 0.545077 -0.039530
v -0.496724 0.595114 -0.038928
v -0.728856 0.675767 -0.037959
v -0.946082 0.784790 -0.036648
v -1.146159 0.919940 -0.035022
v -1.326841 1.078972 -0.033110
v -1.485884 1.259641 -0.030938
v -1.621044 1.459703 -0.028532
v -1.730075 1.676914 -0.025920
v -1.810733 1.909029 -0.023129
v -1.860774 2.153804 -0.020186
l 1 2
l 2 3
l 3 4
l 4 5
l 5 6
l 6 7
l 7 8
l 8 9
l 9 10
l 10 11
l 11 12
l 12 13
l 13 14
l 14 15
l 15 16
l 16 17
l 17 18
l 18 19
l 19 20
l 20 21
l 21 22
l 22 23
l 23 24
l 24 25
l 25 26
l 26 27
l 27 28
l 28 29
l 29 30
l 30 31
l 31 32
l 32 33
l 33 34
l 34 35
l 35 36
l 36 37
l 37 38
l 38 39
l 39 40
l 40 41
l 41 42
l 42 43
l 43 44
l 44 45
l 45 46
l 46 47
l 47 48
l 48 1
o Plane
v 0.007721 -0.164239 0.961024
v 0.007700 -0.140193 -0.038687
v -0.664868 -0.075047 0.962096
v 0.679935 -0.072315 0.962129
v 0.007710 -0.152216 0.461168
v 0.676765 -0.048694 -0.037587
v -0.661739 -0.051415 -0.037620
v -0.663303 -0.063231 0.462238
v 0.678350 -0.060505 0.462271
v -0.987253 0.035816 0.963429
v 0.346186 -0.140510 0.961309
v 0.007705 -0.146204 0.211241
v 0.997188 0.062733 -0.036247
v -0.329286 -0.118156 -0.038422
v -0.330841 -0.142101 0.961290
v 1.001879 0.039639 0.963475
v 0.007695 -0.134181 -0.288615
v 0.007716 -0.158228 0.711096
v 0.344589 -0.116570 -0.038403
v -0.982600 0.058925 -0.036293
v -0.662521 -0.057323 0.212309
v -0.664086 -0.069139 0.712167
v -0.330063 -0.130128 0.461434
v -0.984926 0.047371 0.463568
v 0.677558 -0.054599 0.212342
v 0.679143 -0.066410 0.712200
v 0.999533 0.051186 0.463614
v 0.345388 -0.128540 0.461453
v 0.675973 -0.042789 -0.287516
v -0.660956 -0.045507 -0.287549
v -0.981437 0.064703 -0.286223
v -0.328897 -0.112169 -0.288350
v 0.344190 -0.110585 -0.288331
v 0.996015 0.068506 -0.286178
v 0.345787 -0.134525 0.711381
v 1.000706 0.045413 0.713545
v 0.998360 0.056959 0.213684
v -0.986089 0.041593 0.713499
v -0.330452 -0.136114 0.711362
v -0.329675 -0.124142 0.211506
v -0.983763 0.053148 0.213638
v 0.344989 -0.122555 0.211525
v 0.177093 -0.154300 0.961143
v 0.007703 -0.143199 0.086277
v -0.160889 -0.130873 -0.038575
v -0.498224 -0.110348 0.961672
v 0.841790 -0.018683 0.962774
v 0.007713 -0.155222 0.586132
v 0.511155 -0.084793 -0.038021
v -0.822871 0.001829 -0.036979
v -0.662130 -0.054369 0.087345
v -0.663694 -0.066185 0.587203
v -0.161273 -0.142884 0.461281
v -0.824821 -0.009869 0.462880
v 0.677161 -0.051647 0.087378
v 0.678746 -0.063457 0.587236
v 0.512349 -0.096696 0.461836
v -0.826771 -0.021567 0.962739
v 0.513543 -0.108600 0.961693
v 0.007708 -0.149210 0.336204
v 0.837851 0.004700 -0.036945
v -0.495877 -0.086533 -0.038042
v -0.161657 -0.154894 0.961136
v 0.007697 -0.137187 -0.163651
v 0.007718 -0.161233 0.836060
v 0.176283 -0.130281 -0.038568
v -0.662912 -0.060277 0.337274
v -0.664477 -0.072093 0.837132
v -0.497051 -0.098440 0.461815
v 0.677954 -0.057552 0.337307
v 0.679539 -0.069362 0.837165
v 0.839821 -0.006991 0.462915
v 0.176688 -0.142291 0.461288
v 0.676369 -0.045742 -0.162551
v -0.661348 -0.048461 -0.162584
v -0.982019 0.061814 -0.161258
v -0.821896 0.007678 -0.286909
v -0.329092 -0.115163 -0.163386
v -0.160696 -0.124867 -0.288503
v -0.495290 -0.080579 -0.287970
v 0.344390 -0.113578 -0.163367
v 0.510558 -0.078842 -0.287949
v 0.176080 -0.124277 -0.288496
v 0.996601 0.065619 -0.161212
v 0.836866 0.010545 -0.286875
v 0.345587 -0.131533 0.586417
v 0.345986 -0.137517 0.836345
v 0.512946 -0.102648 0.711765
v 0.176890 -0.148295 0.711215
v 1.000120 0.048299 0.588580
v 1.001292 0.042526 0.838510
v 0.840806 -0.012837 0.712844
v 0.997774 0.059846 0.088718
v 0.998947 0.054073 0.338649
v 0.838836 -0.001146 0.212985
v -0.985508 0.044482 0.588534
v -0.986671 0.038704 0.838464
v -0.825796 -0.015718 0.712810
v -0.330258 -0.133121 0.586398
v -0.330646 -0.139108 0.836326
v -0.161465 -0.148889 0.711208
v -0.497638 -0.104394 0.711744
v -0.329480 -0.121149 0.086542
v -0.329869 -0.127135 0.336470
v -0.161081 -0.136878 0.211353
v -0.496464 -0.092486 0.211887
v -0.983182 0.056036 0.088673
v -0.984345 0.050259 0.338603
v -0.823846 -0.004020 0.212950
v 0.344789 -0.119563 0.086561
v 0.345188 -0.125548 0.336489
v 0.511752 -0.090745 0.211908
v 0.176485 -0.136286 0.211360
v 0.176587 -0.139289 0.336324
v 0.512051 -0.093721 0.336872
v 0.511453 -0.087769 0.086943
v -0.824334 -0.006945 0.337915
v -0.823359 -0.001096 0.087985
v -0.496757 -0.095464 0.336851
v -0.161177 -0.139881 0.336317
v -0.160985 -0.133876 0.086389
v -0.497931 -0.107371 0.836708
v -0.161561 -0.151892 0.836172
v -0.161369 -0.145886 0.586244
v -0.826283 -0.018643 0.837775
v -0.825309 -0.012794 0.587845
v 0.839328 -0.004069 0.337950
v 0.841298 -0.015760 0.837809
v 0.176992 -0.151298 0.836179
v 0.513245 -0.105624 0.836729
v 0.512648 -0.099673 0.586800
v 0.837358 0.007623 -0.161910
v 0.176182 -0.127279 -0.163532
v 0.510856 -0.081818 -0.162985
v -0.495584 -0.083556 -0.163006
v -0.160792 -0.127870 -0.163539
v -0.822384 0.004754 -0.161944
v 0.176789 -0.145293 0.586252
v 0.840313 -0.009914 0.587880
v 0.838343 0.001777 0.088020
v -0.497344 -0.101417 0.586779
v -0.496171 -0.089510 0.086922
v 0.176384 -0.133284 0.086396
vn 0.0587 -0.9980 -0.0240
vn -0.2071 -0.9780 -0.0238
vn -0.2072 -0.9780 -0.0238
vn 0.3146 -0.9489 -0.0234
vn 0.0586 -0.9980 -0.0240
vn -0.3366 -0.9414 -0.0233
vn -0.0753 -0.9969 -0.0240
vn 0.1874 -0.9820 -0.0238
vn 0.1873 -0.9820 -0.0238
vn -0.3366 -0.9413 -0.0233
vn -0.3367 -0.9413 -0.0233
vn -0.0754 -0.9969 -0.0240
vn 0.0812 -0.9964 -0.0240
vn 0.2130 -0.9768 -0.0238
vn -0.3137 -0.9492 -0.0234
vn -0.1865 -0.9822 -0.0238
vn -0.1864 -0.9822 -0.0238
vn -0.0552 -0.9982 -0.0240
vn -0.0551 -0.9982 -0.0240
vn 0.3422 -0.9393 -0.0233
vn 0.3423 -0.9393 -0.0233
vn 0.3145 -0.9490 -0.0234
vn 0.0813 -0.9964 -0.0240
vn 0.2131 -0.9768 -0.0238
vn -0.3138 -0.9492 -0.0234
usemtl None
s off
f 191//1 92//1 50//1 114//1
f 190//2 99//2 55//2 110//2
f 189//3 100//3 56//3 117//3
f 188//4 103//4 54//4 109//4
f 187//4 104//4 57//4 120//4
f 186//5 96//5 53//5 121//5
f 185//6 124//6 79//6 125//6
f 184//7 126//7 80//7 127//7
f 183//2 123//2 78//2 128//2
f 182//8 129//8 81//8 130//8
f 181//1 112//1 65//1 131//1
f 180//4 122//4 77//4 133//4
f 179//9 134//9 76//9 105//9
f 178//9 135//9 83//9 136//9
f 177//5 113//5 66//5 137//5
f 176//4 119//4 74//4 140//4
f 175//4 118//4 73//4 143//4
f 174//10 144//10 72//10 102//10
f 173//11 145//11 86//11 146//11
f 172//12 147//12 71//12 101//12
f 171//12 148//12 87//12 149//12
f 170//3 116//3 70//3 150//3
f 169//7 151//7 62//7 93//7
f 168//7 152//7 88//7 153//7
f 167//3 115//3 69//3 154//3
f 166//6 155//6 68//6 98//6
f 165//10 156//10 89//10 157//10
f 164//8 158//8 67//8 97//8
f 163//8 159//8 90//8 160//8
f 162//1 108//1 60//1 161//1
f 159//13 162//13 161//13 90//13
f 76//13 121//13 162//13 159//13
f 121//5 53//5 108//5 162//5
f 118//14 163//14 160//14 73//14
f 57//14 105//14 163//14 118//14
f 105//8 76//8 159//8 163//8
f 103//14 164//14 97//14 54//14
f 73//14 160//14 164//14 103//14
f 160//8 90//8 158//8 164//8
f 115//15 165//15 157//15 69//15
f 56//15 102//15 165//15 115//15
f 102//10 72//10 156//10 165//10
f 99//15 166//15 98//15 55//15
f 69//15 157//15 166//15 99//15
f 157//6 89//6 155//6 166//6
f 152//16 167//16 154//16 88//16
f 71//17 117//17 167//17 152//17
f 117//3 56//3 115//3 167//3
f 108//18 168//18 153//18 60//18
f 53//18 101//18 168//18 108//18
f 101//7 71//7 152//7 168//7
f 92//18 169//18 93//18 50//18
f 60//18 153//18 169//18 92//18
f 153//7 88//7 151//7 169//7
f 148//17 170//17 150//17 87//17
f 63//17 94//17 170//17 148//17
f 94//3 51//3 116//3 170//3
f 113//19 171//19 149//19 66//19
f 49//19 111//19 171//19 113//19
f 111//12 63//12 148//12 171//12
f 96//19 172//19 101//19 53//19
f 66//19 149//19 172//19 96//19
f 149//12 87//12 147//12 172//12
f 116//15 173//15 146//15 70//15
f 51//15 106//15 173//15 116//15
f 106//11 58//11 145//11 173//11
f 100//15 174//15 102//15 56//15
f 70//15 146//15 174//15 100//15
f 146//11 86//11 144//11 174//11
f 142//20 175//20 143//20 85//20
f 75//21 120//21 175//21 142//21
f 120//4 57//4 118//4 175//4
f 139//21 176//21 140//21 84//21
f 64//21 95//21 176//21 139//21
f 95//22 52//22 119//22 176//22
f 135//23 177//23 137//23 83//23
f 59//23 91//23 177//23 135//23
f 91//5 49//5 113//5 177//5
f 119//14 178//14 136//14 74//14
f 52//24 107//24 178//24 119//24
f 107//9 59//9 135//9 178//9
f 104//14 179//14 105//14 57//14
f 74//14 136//14 179//14 104//14
f 136//9 83//9 134//9 179//9
f 132//20 180//20 133//20 82//20
f 61//20 109//20 180//20 132//20
f 109//4 54//4 122//4 180//4
f 129//13 181//13 131//13 81//13
f 67//13 114//13 181//13 129//13
f 114//1 50//1 112//1 181//1
f 122//14 182//14 130//14 77//14
f 54//14 97//14 182//14 122//14
f 97//8 67//8 129//8 182//8
f 126//16 183//16 128//16 80//16
f 62//16 110//16 183//16 126//16
f 110//2 55//2 123//2 183//2
f 112//18 184//18 127//18 65//18
f 50//18 93//18 184//18 112//18
f 93//7 62//7 126//7 184//7
f 123//25 185//25 125//25 78//25
f 55//25 98//25 185//25 123//25
f 98//6 68//6 124//6 185//6
f 134//13 186//13 121//13 76//13
f 83//23 137//23 186//23 134//23
f 137//5 66//5 96//5 186//5
f 138//21 187//21 120//21 75//21
f 84//21 140//21 187//21 138//21
f 140//4 74//4 104//4 187//4
f 141//20 188//20 109//20 61//20
f 85//20 143//20 188//20 141//20
f 143//4 73//4 103//4 188//4
f 147//17 189//17 117//17 71//17
f 87//17 150//17 189//17 147//17
f 150//3 70//3 100//3 189//3
f 151//16 190//16 110//16 62//16
f 88//16 154//16 190//16 151//16
f 154//3 69//3 99//3 190//3
f 158//13 191//13 114//13 67//13
f 90//13 161//13 191//13 158//13
f 161//1 60//1 92//1 191//1
